<mxfile host="drawio-plugin" modified="2023-03-14T11:10:37.115Z" agent="5.0 (Windows NT 6.2; Win64; x64) AppleWebKit/537.36 (KHTML, like Gecko) Chrome/104.0.5112.102 Safari/537.36" etag="H1UkB9LDXo1sEiCrX7ws" version="20.5.3" type="embed"><diagram id="I7ln8QFvQoFqywVXTDl-" name="Page-1"><mxGraphModel dx="572" dy="607" grid="1" gridSize="10" guides="1" tooltips="1" connect="1" arrows="1" fold="1" page="1" pageScale="1" pageWidth="850" pageHeight="1100" math="0" shadow="0"><root><mxCell id="0"/><mxCell id="1" parent="0"/><mxCell id="g2fUfpvkOD9KhjDh-sg5-14" value="" style="shape=folder;fontStyle=1;spacingTop=10;tabWidth=80;tabHeight=30;tabPosition=left;html=1;" parent="1" vertex="1"><mxGeometry x="50" y="260" width="750" height="760" as="geometry"/></mxCell><mxCell id="g2fUfpvkOD9KhjDh-sg5-1" value="Ship" style="swimlane;fontStyle=1;align=center;verticalAlign=top;childLayout=stackLayout;horizontal=1;startSize=26;horizontalStack=0;resizeParent=1;resizeParentMax=0;resizeLast=0;collapsible=1;marginBottom=0;" parent="1" vertex="1"><mxGeometry x="70" y="320" width="330" height="280" as="geometry"/></mxCell><mxCell id="g2fUfpvkOD9KhjDh-sg5-2" value="- ID: string&#10;- Name: string&#10;- Messages: Message[]&#10;&#10;- DEFAULT_NAME: string&#10;- DEFAULT_MESSAGE: string" style="text;strokeColor=none;fillColor=none;align=left;verticalAlign=top;spacingLeft=4;spacingRight=4;overflow=hidden;rotatable=0;points=[[0,0.5],[1,0.5]];portConstraint=eastwest;" parent="g2fUfpvkOD9KhjDh-sg5-1" vertex="1"><mxGeometry y="26" width="330" height="94" as="geometry"/></mxCell><mxCell id="g2fUfpvkOD9KhjDh-sg5-3" value="" style="line;strokeWidth=1;fillColor=none;align=left;verticalAlign=middle;spacingTop=-1;spacingLeft=3;spacingRight=3;rotatable=0;labelPosition=right;points=[];portConstraint=eastwest;" parent="g2fUfpvkOD9KhjDh-sg5-1" vertex="1"><mxGeometry y="120" width="330" height="8" as="geometry"/></mxCell><mxCell id="g2fUfpvkOD9KhjDh-sg5-4" value="+ Ship(): void&#10;+ Ship(ID: string, Name)&#10;+ Ship(ID: string, Name: string, Message: Message[]): void&#10;&#10;+ printMessages(): void&#10;+ addMessage(newMssage: Message): void&#10;&#10;+ getID(): string&#10;+ getName(): string&#10;+ getMessages(): Messages[]" style="text;strokeColor=none;fillColor=none;align=left;verticalAlign=top;spacingLeft=4;spacingRight=4;overflow=hidden;rotatable=0;points=[[0,0.5],[1,0.5]];portConstraint=eastwest;" parent="g2fUfpvkOD9KhjDh-sg5-1" vertex="1"><mxGeometry y="128" width="330" height="152" as="geometry"/></mxCell><mxCell id="g2fUfpvkOD9KhjDh-sg5-15" value="accse.csc2a" style="text;align=center;fontStyle=1;verticalAlign=middle;spacingLeft=3;spacingRight=3;strokeColor=none;rotatable=0;points=[[0,0.5],[1,0.5]];portConstraint=eastwest;" parent="1" vertex="1"><mxGeometry x="50" y="260" width="80" height="26" as="geometry"/></mxCell><mxCell id="g2fUfpvkOD9KhjDh-sg5-21" value="Message" style="swimlane;fontStyle=1;align=center;verticalAlign=top;childLayout=stackLayout;horizontal=1;startSize=26;horizontalStack=0;resizeParent=1;resizeParentMax=0;resizeLast=0;collapsible=1;marginBottom=0;" parent="1" vertex="1"><mxGeometry x="470" y="320" width="300" height="540" as="geometry"/></mxCell><mxCell id="g2fUfpvkOD9KhjDh-sg5-22" value="- ID: char[8]&#10;- Language: string&#10;- Message: string&#10;- SourcePlanet: Planet&#10;- DestinationPlanet: Planet&#10; &#10;+ DEFAULT_LANGUAGE: string&#10;+ DEFAULT_MESSAGE: string&#10;+ DEFAULT_SOURCE_PLANET: Planet&#10;+ DEFAULT_DESTINATION_PLANET: Planet" style="text;strokeColor=none;fillColor=none;align=left;verticalAlign=top;spacingLeft=4;spacingRight=4;overflow=hidden;rotatable=0;points=[[0,0.5],[1,0.5]];portConstraint=eastwest;" parent="g2fUfpvkOD9KhjDh-sg5-21" vertex="1"><mxGeometry y="26" width="300" height="154" as="geometry"/></mxCell><mxCell id="g2fUfpvkOD9KhjDh-sg5-23" value="" style="line;strokeWidth=1;fillColor=none;align=left;verticalAlign=middle;spacingTop=-1;spacingLeft=3;spacingRight=3;rotatable=0;labelPosition=right;points=[];portConstraint=eastwest;" parent="g2fUfpvkOD9KhjDh-sg5-21" vertex="1"><mxGeometry y="180" width="300" height="8" as="geometry"/></mxCell><mxCell id="g2fUfpvkOD9KhjDh-sg5-24" value="+ Message(): void&#10;+ Message(Language: String, Language: String): void&#10;+ Message(&#10;        Language: String, &#10;        Message: String,&#10;        SourcePlanet: Planet,&#10;        DestinationPlanet: Planet&#10;   ): void&#10;&#10;+ getID(): string&#10;+ getLanguage(): string&#10;+ getMessage(): string&#10;+ getSourcePlanet(): String&#10;+ getDestinationPlanet(): String&#10;&#10;+ getPlanetString(Planet: Planet): string&#10;- init(&#10;        ID: string,&#10;        Language: string&#10;        Message: string&#10;        SourcePlanet: Planet&#10;        DestinationPlanet: Planet&#10;  ): void&#10;- generateID(): string&#10;&#10;" style="text;strokeColor=none;fillColor=none;align=left;verticalAlign=top;spacingLeft=4;spacingRight=4;overflow=hidden;rotatable=0;points=[[0,0.5],[1,0.5]];portConstraint=eastwest;" parent="g2fUfpvkOD9KhjDh-sg5-21" vertex="1"><mxGeometry y="188" width="300" height="352" as="geometry"/></mxCell><mxCell id="g2fUfpvkOD9KhjDh-sg5-25" value="&lt;&lt;enumeration&gt;&gt;&#10;Planet" style="swimlane;fontStyle=0;childLayout=stackLayout;horizontal=1;startSize=40;fillColor=none;horizontalStack=0;resizeParent=1;resizeParentMax=0;resizeLast=0;collapsible=1;marginBottom=0;" parent="1" vertex="1"><mxGeometry x="260" y="630" width="140" height="180" as="geometry"/></mxCell><mxCell id="g2fUfpvkOD9KhjDh-sg5-26" value="Mercury&#10;Venus&#10;Earth&#10;Mars&#10;Jupiter&#10;Saturn&#10;Uranus&#10;Neptune&#10;Pluto" style="text;strokeColor=none;fillColor=none;align=left;verticalAlign=top;spacingLeft=4;spacingRight=4;overflow=hidden;rotatable=0;points=[[0,0.5],[1,0.5]];portConstraint=eastwest;" parent="g2fUfpvkOD9KhjDh-sg5-25" vertex="1"><mxGeometry y="40" width="140" height="140" as="geometry"/></mxCell><mxCell id="g2fUfpvkOD9KhjDh-sg5-31" style="edgeStyle=orthogonalEdgeStyle;rounded=0;orthogonalLoop=1;jettySize=auto;html=1;exitX=1;exitY=0.5;exitDx=0;exitDy=0;entryX=0.004;entryY=0.391;entryDx=0;entryDy=0;entryPerimeter=0;endArrow=diamond;endFill=0;endSize=16;" parent="1" source="g2fUfpvkOD9KhjDh-sg5-2" target="g2fUfpvkOD9KhjDh-sg5-22" edge="1"><mxGeometry relative="1" as="geometry"/></mxCell><mxCell id="g2fUfpvkOD9KhjDh-sg5-45" style="edgeStyle=orthogonalEdgeStyle;rounded=0;orthogonalLoop=1;jettySize=auto;html=1;exitX=0.5;exitY=1;exitDx=0;exitDy=0;exitPerimeter=0;entryX=0.5;entryY=0;entryDx=0;entryDy=0;endArrow=open;endFill=0;endSize=16;strokeWidth=1;dashed=1;" parent="1" source="g2fUfpvkOD9KhjDh-sg5-37" target="g2fUfpvkOD9KhjDh-sg5-1" edge="1"><mxGeometry relative="1" as="geometry"/></mxCell><mxCell id="g2fUfpvkOD9KhjDh-sg5-46" style="edgeStyle=orthogonalEdgeStyle;rounded=0;orthogonalLoop=1;jettySize=auto;html=1;exitX=0;exitY=0;exitDx=190;exitDy=75;exitPerimeter=0;entryX=0.5;entryY=0;entryDx=0;entryDy=0;endArrow=open;endFill=0;endSize=16;strokeWidth=1;dashed=1;" parent="1" source="g2fUfpvkOD9KhjDh-sg5-37" target="g2fUfpvkOD9KhjDh-sg5-21" edge="1"><mxGeometry relative="1" as="geometry"/></mxCell><mxCell id="g2fUfpvkOD9KhjDh-sg5-37" value="" style="shape=folder;fontStyle=1;spacingTop=10;tabWidth=110;tabHeight=30;tabPosition=left;html=1;" parent="1" vertex="1"><mxGeometry x="90" y="40" width="190" height="120" as="geometry"/></mxCell><mxCell id="g2fUfpvkOD9KhjDh-sg5-38" value="Default Package" style="text;align=center;fontStyle=1;verticalAlign=middle;spacingLeft=3;spacingRight=3;strokeColor=none;rotatable=0;points=[[0,0.5],[1,0.5]];portConstraint=eastwest;" parent="1" vertex="1"><mxGeometry x="90" y="40" width="110" height="30" as="geometry"/></mxCell><mxCell id="g2fUfpvkOD9KhjDh-sg5-40" style="edgeStyle=orthogonalEdgeStyle;rounded=0;orthogonalLoop=1;jettySize=auto;html=1;exitX=1;exitY=0.5;exitDx=0;exitDy=0;endArrow=none;endFill=0;endSize=16;strokeWidth=1;" parent="1" source="g2fUfpvkOD9KhjDh-sg5-26" target="g2fUfpvkOD9KhjDh-sg5-24" edge="1"><mxGeometry relative="1" as="geometry"/></mxCell><mxCell id="g2fUfpvkOD9KhjDh-sg5-41" value="Main" style="swimlane;fontStyle=0;childLayout=stackLayout;horizontal=1;startSize=26;fillColor=none;horizontalStack=0;resizeParent=1;resizeParentMax=0;resizeLast=0;collapsible=1;marginBottom=0;" parent="1" vertex="1"><mxGeometry x="110" y="90" width="150" height="52" as="geometry"/></mxCell><mxCell id="g2fUfpvkOD9KhjDh-sg5-42" value="+ Main(args: string[]): void" style="text;strokeColor=none;fillColor=none;align=left;verticalAlign=top;spacingLeft=4;spacingRight=4;overflow=hidden;rotatable=0;points=[[0,0.5],[1,0.5]];portConstraint=eastwest;" parent="g2fUfpvkOD9KhjDh-sg5-41" vertex="1"><mxGeometry y="26" width="150" height="26" as="geometry"/></mxCell><mxCell id="YEhF0x3Nm3BPVZEVrBuS-6" value="" style="shape=folder;fontStyle=1;spacingTop=10;tabWidth=100;tabHeight=30;tabPosition=left;html=1;" parent="1" vertex="1"><mxGeometry x="70" y="880" width="230" height="120" as="geometry"/></mxCell><mxCell id="YEhF0x3Nm3BPVZEVrBuS-1" value="FileHandler" style="swimlane;fontStyle=1;align=center;verticalAlign=top;childLayout=stackLayout;horizontal=1;startSize=26;horizontalStack=0;resizeParent=1;resizeParentMax=0;resizeLast=0;collapsible=1;marginBottom=0;" parent="1" vertex="1"><mxGeometry x="90" y="930" width="190" height="60" as="geometry"/></mxCell><mxCell id="YEhF0x3Nm3BPVZEVrBuS-3" value="" style="line;strokeWidth=1;fillColor=none;align=left;verticalAlign=middle;spacingTop=-1;spacingLeft=3;spacingRight=3;rotatable=0;labelPosition=right;points=[];portConstraint=eastwest;" parent="YEhF0x3Nm3BPVZEVrBuS-1" vertex="1"><mxGeometry y="26" width="190" height="8" as="geometry"/></mxCell><mxCell id="YEhF0x3Nm3BPVZEVrBuS-4" value="+ readFile(filePath: string): Ship[]" style="text;strokeColor=none;fillColor=none;align=left;verticalAlign=top;spacingLeft=4;spacingRight=4;overflow=hidden;rotatable=0;points=[[0,0.5],[1,0.5]];portConstraint=eastwest;" parent="YEhF0x3Nm3BPVZEVrBuS-1" vertex="1"><mxGeometry y="34" width="190" height="26" as="geometry"/></mxCell><mxCell id="YEhF0x3Nm3BPVZEVrBuS-7" value="accse.csc2a.file" style="text;align=left;fontStyle=1;verticalAlign=middle;spacingLeft=3;spacingRight=3;strokeColor=none;rotatable=0;points=[[0,0.5],[1,0.5]];portConstraint=eastwest;" parent="1" vertex="1"><mxGeometry x="70" y="880" width="80" height="26" as="geometry"/></mxCell><mxCell id="YEhF0x3Nm3BPVZEVrBuS-9" style="edgeStyle=orthogonalEdgeStyle;rounded=0;orthogonalLoop=1;jettySize=auto;html=1;exitX=0;exitY=0.5;exitDx=0;exitDy=0;entryX=0;entryY=0.5;entryDx=0;entryDy=0;endArrow=none;endFill=0;" parent="1" source="YEhF0x3Nm3BPVZEVrBuS-4" target="g2fUfpvkOD9KhjDh-sg5-42" edge="1"><mxGeometry relative="1" as="geometry"><Array as="points"><mxPoint x="60" y="977"/><mxPoint x="60" y="129"/></Array></mxGeometry></mxCell></root></mxGraphModel></diagram></mxfile>